<?xml version="1.0" encoding="UTF-8" standalone="no"?>
<!-- Created with Inkscape (http://www.inkscape.org/) -->

<svg
   xmlns:dc="http://purl.org/dc/elements/1.1/"
   xmlns:cc="http://creativecommons.org/ns#"
   xmlns:rdf="http://www.w3.org/1999/02/22-rdf-syntax-ns#"
   xmlns:svg="http://www.w3.org/2000/svg"
   xmlns="http://www.w3.org/2000/svg"
   xmlns:sodipodi="http://sodipodi.sourceforge.net/DTD/sodipodi-0.dtd"
   xmlns:inkscape="http://www.inkscape.org/namespaces/inkscape"
   width="150.85233"
   height="161.81927"
   viewBox="0 0 150.85233 161.81928"
   id="svg2"
   version="1.1"
   inkscape:version="0.91 r13725"
   sodipodi:docname="centurion-logo.svg">
  <defs
     id="defs4" />
  <sodipodi:namedview
     id="base"
     pagecolor="#ffffff"
     bordercolor="#666666"
     borderopacity="1.0"
     inkscape:pageopacity="0.0"
     inkscape:pageshadow="2"
     inkscape:zoom="0.8455211"
     inkscape:cx="69.375758"
     inkscape:cy="152.0119"
     inkscape:document-units="px"
     inkscape:current-layer="layer1"
     showgrid="false"
     showguides="false"
     inkscape:window-width="679"
     inkscape:window-height="729"
     inkscape:window-x="683"
     inkscape:window-y="18"
     inkscape:window-maximized="0"
     units="px"
     fit-margin-top="0"
     fit-margin-left="0"
     fit-margin-right="0"
     fit-margin-bottom="0" />
  <metadata
     id="metadata7">
    <rdf:RDF>
      <cc:Work
         rdf:about="">
        <dc:format>image/svg+xml</dc:format>
        <dc:type
           rdf:resource="http://purl.org/dc/dcmitype/StillImage" />
        <dc:title></dc:title>
      </cc:Work>
    </rdf:RDF>
  </metadata>
  <g
     inkscape:groupmode="layer"
     id="layer2"
     inkscape:label="BASE"
     transform="translate(-27.98665,-18.750179)" />
  <g
     inkscape:label="Camada 1"
     inkscape:groupmode="layer"
     id="layer1"
     transform="translate(-27.98665,-18.750179)">
    <g
       id="g4957"
       transform="matrix(0.49665347,0,0,0.49665347,758.05956,4.9775653)">
      <g
         transform="translate(-10.156854,-433.74935)"
         id="g4950">
        <path
           style="fill:#c5322b;fill-opacity:1"
           d="m -1321.1957,787.0977 c -8.7455,-0.6739 -20.917,-2.9087 -31.7651,-5.8323 -3.5383,-0.9536 -11.6852,-3.7849 -14.7409,-5.123 -0.495,-0.2168 -1.6402,-0.6851 -2.5448,-1.0407 -0.9047,-0.3556 -2.3599,-0.9736 -3.2339,-1.3734 -0.874,-0.3997 -1.6603,-0.7268 -1.7474,-0.7268 -0.4863,0 -9.4829,-4.6152 -12.3885,-6.35522 -1.878,-1.12465 -3.4679,-2.04482 -3.5329,-2.04482 -0.065,0 -1.9547,-1.24875 -4.1992,-2.775 -2.2444,-1.52625 -4.379,-2.9775 -4.7436,-3.225 -0.7048,-0.47857 -1.5132,-1.10729 -5.3795,-4.18375 -1.3366,-1.06356 -2.4977,-2.01042 -2.5802,-2.10412 -0.082,-0.0937 -0.8921,-0.77602 -1.799,-1.51626 -0.9069,-0.74023 -1.9328,-1.61587 -2.2796,-1.94587 -0.3468,-0.33 -1.4905,-1.3425 -2.5414,-2.25 -2.6735,-2.30854 -8.6359,-8.28259 -9.8808,-9.9 l -1.039,-1.35 1.4949,1.18983 c 0.8222,0.6544 1.5624,1.26539 1.6449,1.35775 0.7858,0.87967 10.5761,7.50242 11.0907,7.50242 0.1701,0 0.3093,0.11926 0.3093,0.26501 0,0.14576 0.2362,0.34456 0.525,0.44179 0.5063,0.1705 1.1291,0.51778 3.375,1.88199 3.3049,2.0075 9.7833,5.31534 13.65,6.96961 4.3323,1.85348 4.4409,1.89929 5.1,2.15115 0.33,0.1261 1.0725,0.43466 1.65,0.68568 1.9011,0.8264 5.828,2.35355 7.05,2.74173 14.4054,4.57615 28.6248,7.36138 42.3,8.28548 6.4219,0.434 17.6515,0.2136 23.55,-0.4621 12.3801,-1.4182 26.1853,-4.30114 34.0332,-7.10715 1.8243,-0.65224 3.9243,-1.3913 4.6668,-1.64236 3.3707,-1.1397 6.5554,-2.30954 7.7217,-2.83637 0.6995,-0.31595 1.3373,-0.57446 1.4175,-0.57446 0.08,0 1.0432,-0.41105 2.1401,-0.91345 5.8605,-2.68415 10.3291,-5.0479 15.3057,-8.09629 1.1358,-0.69566 2.5144,-1.52173 3.0636,-1.83568 1.1736,-0.67087 6.4331,-4.1739 6.6514,-4.43005 0.082,-0.0968 0.96,-0.78321 1.95,-1.52529 0.99,-0.74208 1.9474,-1.48424 2.1275,-1.64924 0.1801,-0.165 0.7752,-0.6375 1.3225,-1.05 0.5473,-0.4125 1.1424,-0.885 1.3225,-1.05 0.1801,-0.165 1.1375,-0.90716 2.1275,-1.64924 0.99,-0.74208 1.8675,-1.42196 1.95,-1.51083 0.082,-0.0889 1.1774,-0.99372 2.4331,-2.01079 3.8096,-3.0856 12.1223,-11.53588 15.4239,-15.67914 0.9862,-1.2375 1.928,-2.39499 2.093,-2.57221 0.165,-0.17721 0.6375,-0.75847 1.05,-1.29168 0.8196,-1.0595 1.5211,-1.91915 2.4182,-2.96339 0.32,-0.37251 0.5824,-0.77751 0.5832,-0.9 9e-4,-0.1225 0.372,-0.62905 0.825,-1.12569 1.3554,-1.48606 4.2619,-5.76991 7.7326,-11.39703 1.4932,-2.42099 6.5981,-12.46922 7.9254,-15.6 0.1399,-0.33 0.4568,-1.0725 0.7042,-1.65 0.2474,-0.5775 0.8117,-1.995 1.2539,-3.15 0.4422,-1.155 1.05,-2.7075 1.3507,-3.45 1.3697,-3.38248 4.5141,-13.85546 5.4043,-18 0.1595,-0.7425 0.5511,-2.565 0.8703,-4.05 0.4998,-2.32551 0.7965,-4.01082 1.7042,-9.67939 0.9458,-5.90654 1.3256,-21.17072 0.7262,-29.18564 -0.8629,-11.53849 -2.8549,-22.37672 -6.1337,-33.37307 -0.8451,-2.83437 -3.6075,-10.3416 -4.6362,-12.5997 -0.3456,-0.75861 -0.6283,-1.44335 -0.6283,-1.52165 0,-0.17025 -3.0968,-6.79463 -3.8757,-8.29055 -2.6,-4.99328 -6.688,-12.12126 -7.5201,-13.11234 -0.1673,-0.19928 -0.3042,-0.43706 -0.3042,-0.52839 0,-0.25103 -2.1397,-3.32435 -4.1037,-5.89424 -3.7906,-4.9599 -5.6395,-7.33248 -6.0094,-7.71146 -0.2128,-0.21803 -0.3869,-0.54532 -0.3869,-0.72729 0,-0.33295 0.4444,0.03 2.9738,2.4288 0.7569,0.71779 2.1763,2.00029 3.1542,2.85 2.2296,1.93723 5.3173,5.02447 8.422,8.42074 2.2135,2.4214 2.8886,3.17871 4.3003,4.82418 0.2831,0.33 1.5861,2.0175 2.8956,3.75 1.3095,1.7325 2.4874,3.285 2.6175,3.45 1.411,1.78953 6.0128,8.73431 8.0508,12.15 8.3642,14.01814 14.0313,28.79902 17.4834,45.6 2.2398,10.90118 3.443,22.79059 3.1089,30.72034 -0.6503,15.4333 -1.6771,23.56151 -4.1535,32.87966 -0.3289,1.2375 -0.7764,2.925 -0.9946,3.75 -2.2333,8.44495 -7.8765,22.2649 -12.6786,31.04948 -3.2252,5.89977 -11.5339,18.37546 -14.3186,21.49961 -0.1712,0.192 -0.6034,0.732 -0.9606,1.2 -0.3572,0.468 -0.8972,1.13545 -1.2,1.48322 -2.4535,2.8176 -3.7653,4.29939 -4.4962,5.07879 -0.4699,0.50111 -1.5969,1.77002 -2.5044,2.8198 -1.6046,1.85616 -3.3738,3.6012 -6.45,6.36204 -0.825,0.74042 -2.04,1.83318 -2.7,2.42836 -1.695,1.52852 -2.5316,2.25099 -3.8602,3.33343 -0.6382,0.5199 -1.3132,1.08027 -1.5,1.24527 -0.1869,0.165 -1.1498,0.90716 -2.1398,1.64924 -0.99,0.74208 -1.8675,1.42931 -1.95,1.52718 -0.1308,0.15518 -7.6821,5.31542 -8.961,6.12358 -0.2611,0.165 -1.231,0.79553 -2.1553,1.40117 -1.5801,1.03529 -2.2756,1.44809 -5.2337,3.10637 -13.9147,7.8002 -26.1739,12.5339 -41.85,16.1598 -4.9042,1.1343 -13.0759,2.5813 -18.9788,3.3605 -4.2553,0.5618 -22.5522,0.8355 -27.9652,0.4184 z"
           id="path4407"
           inkscape:connector-curvature="0" />
        <g
           id="g4933"
           transform="translate(95.994945,-11.142131)">
          <path
             id="path4927"
             d="m -1490.8949,472.62903 c -9.0566,0.0602 -11.7202,0.42434 -18.1329,2.47864 -1.0804,0.3461 -2.2352,0.74363 -2.5676,0.88313 -0.3325,0.13949 -1.2176,0.47985 -1.9656,0.75752 -2.3027,0.85498 -8.3988,3.68386 -8.7635,4.06633 -0.083,0.0872 -0.5599,0.35811 -1.0585,0.60249 -0.9312,0.45632 -4.9682,3.07093 -5.8515,3.7896 -0.2719,0.22127 -1.5822,1.27605 -2.912,2.34323 -2.1668,1.73898 -6.5519,6.05919 -8.1653,8.04433 -1.5867,1.95233 -4.3388,5.66662 -4.7988,6.47824 -0.282,0.49738 -1.0537,1.78565 -1.7157,2.86331 -2.8581,4.65234 -5.9226,12.01617 -7.339,17.6351 -2.4624,9.76831 -2.1555,23.39345 0.7516,33.46078 1.2663,4.38504 3.4469,9.94541 4.9071,12.50903 0.3305,0.58028 1.0101,1.80229 1.5091,2.71415 0.499,0.91186 0.9835,1.72458 1.0782,1.80747 0.4034,0.35306 1.5327,2.11143 1.5327,2.38641 0,0.16497 0.3462,0.64559 0.7693,1.06761 0.4231,0.42202 0.6749,0.76734 0.5588,0.76734 -0.1161,0 0.1027,0.2709 0.486,0.60249 0.3833,0.33158 0.6102,0.60249 0.5037,0.60249 -0.1066,0 0.5865,0.77959 1.5406,1.7329 1.4996,1.49844 2.2685,2.35975 4.907,5.50091 1.1535,1.37314 3.1691,3.72402 3.457,4.03099 0.1756,0.18721 0.8367,0.98112 1.4678,1.7643 0.6311,0.78318 1.3126,1.59807 1.515,1.80943 0.2024,0.21135 1.1148,1.26558 2.0266,2.34324 0.9118,1.07765 1.726,2.0268 1.8101,2.10969 0.084,0.0829 0.9009,1.03182 1.8141,2.10774 0.9132,1.07592 1.9654,2.26905 2.3394,2.65135 0.374,0.3823 0.6808,0.79187 0.6808,0.9106 0,0.11874 0.9848,1.23801 2.1899,2.4865 1.2051,1.24848 2.7078,2.90524 3.3389,3.68167 0.6311,0.77644 1.3111,1.58433 1.5111,1.79569 0.2,0.21136 1.1114,1.26559 2.0246,2.34324 0.9132,1.07765 1.735,2.0268 1.8278,2.1097 0.093,0.0829 0.5692,0.69488 1.0586,1.35805 0.4893,0.66317 1.2798,1.57723 1.755,2.03316 0.4752,0.45593 0.7756,0.83014 0.669,0.83014 -0.1066,0 0.087,0.30404 0.4289,0.67707 1.1805,1.28813 2.3399,2.6145 3.5121,4.01726 1.747,2.09063 5.141,5.92696 6.6169,7.47912 0.3328,0.3501 1.0787,1.24784 1.6566,1.9939 0.5779,0.74607 1.6532,2.00121 2.3906,2.78873 0.7374,0.78752 1.3659,1.43067 1.397,1.43067 0.031,0 0.7166,-0.8478 1.5228,-1.88401 0.8063,-1.0362 2.4307,-2.90137 3.6105,-4.14482 1.9348,-2.03924 4.9608,-5.51421 5.7413,-6.59403 0.1662,-0.22997 0.8128,-0.94244 1.4363,-1.58374 0.6235,-0.64129 1.0628,-1.16573 0.9759,-1.16573 -0.087,0 0.5913,-0.74874 1.5091,-1.66421 0.9178,-0.91547 1.6704,-1.76327 1.6724,-1.88401 0,-0.12075 0.5802,-0.84885 1.2848,-1.6171 0.7047,-0.76826 1.8925,-2.1174 2.6405,-2.99675 1.1501,-1.35221 2.8697,-3.32099 4.0807,-4.6747 0.1662,-0.18582 0.8462,-0.99926 1.5111,-1.80748 1.0851,-1.31903 2.8163,-3.33391 3.6261,-4.21939 0.1663,-0.18174 0.7779,-0.91704 1.3596,-1.63477 0.5818,-0.71774 1.1953,-1.45263 1.3616,-1.63281 0.1662,-0.18018 0.7923,-0.93799 1.393,-1.68383 0.6006,-0.74585 1.4858,-1.77516 1.9656,-2.28828 0.4797,-0.51312 1.3484,-1.51877 1.9301,-2.23334 0.5818,-0.71458 1.3966,-1.66372 1.8121,-2.1097 0.4156,-0.44598 1.2323,-1.399 1.8141,-2.11754 0.5818,-0.71855 1.3302,-1.58799 1.6626,-1.93308 0.3324,-0.34509 1.3524,-1.50651 2.2666,-2.5807 0.9142,-1.07419 1.9342,-2.2393 2.2666,-2.58854 2.0347,-2.13753 5.9037,-7.09198 7.7462,-9.92049 5.1497,-7.90534 8.4979,-16.77685 9.7748,-25.90119 0.8278,-5.91489 0.4762,-17.45837 -0.7162,-23.556 -0.1641,-0.83959 -0.6348,-2.5352 -1.0467,-3.76801 -0.4119,-1.23282 -0.9905,-3.05587 -1.2848,-4.05062 -0.2944,-0.99476 -0.6793,-1.90743 -0.8559,-2.02924 -0.1766,-0.12181 -0.2166,-0.22368 -0.089,-0.22568 0.128,-0.003 -0.052,-0.56367 -0.4014,-1.2462 -0.3491,-0.68254 -0.6877,-1.52094 -0.7536,-1.86242 -0.066,-0.34148 -0.294,-0.72952 -0.5056,-0.86351 -0.023,-0.14968 -0.018,-0.2276 -0.1555,-0.24923 0.2815,-0.006 -2.3918,-5.36871 -2.9572,-5.93267 -0.2231,-0.22253 -0.4929,-0.67616 -0.5981,-1.00676 -0.1052,-0.33061 -0.3172,-0.60053 -0.4722,-0.60053 -0.1551,0 -0.2814,-0.20889 -0.2814,-0.46512 0,-0.25622 -0.34,-0.80619 -0.7555,-1.22067 -0.4156,-0.41449 -0.7556,-0.87759 -0.7556,-1.03032 0,-0.15273 -0.4811,-0.75656 -1.0684,-1.34236 -0.5873,-0.5858 -0.9739,-1.06564 -0.8598,-1.06564 0.1141,0 -0.1066,-0.27091 -0.4899,-0.6025 -0.3833,-0.33158 -0.599,-0.60445 -0.4801,-0.60445 0.119,0 -0.9282,-1.1187 -2.3256,-2.4865 -7.1846,-7.03238 -11.0223,-9.96163 -17.1865,-13.11741 -7.6517,-3.91727 -13.5017,-5.88098 -21.4109,-7.18474 -2.4567,-0.40498 -4.778,-0.5115 -10.2765,-0.47492 z m 0.6355,33.55889 c 0.6063,0.002 1.2264,0.0189 1.8653,0.0471 8.7097,0.385 15.1754,3.18973 21.6351,9.38865 6.7877,6.51362 10.0665,14.94941 9.6312,24.78059 -0.5012,11.31794 -6.1241,20.58305 -16.0867,26.50957 -3.1788,1.89098 -7.126,3.28934 -12.187,4.31556 -2.1363,0.43319 -7.5203,0.35845 -10.2627,-0.1413 -6.7697,-1.23367 -12.3842,-4.10533 -17.2161,-8.80774 -4.6252,-4.50139 -7.5337,-9.48316 -9.1904,-15.74521 -0.8885,-3.35858 -1.0942,-10.17511 -0.4151,-13.71597 1.5243,-7.94732 5.7044,-14.91011 11.6459,-19.39744 0.5818,-0.43938 1.2348,-0.96484 1.452,-1.16966 0.7832,-0.73841 5.6251,-3.35046 7.463,-4.0251 3.8976,-1.43077 7.4216,-2.05623 11.6655,-2.03905 z"
             style="fill:#c5322b;fill-opacity:1"
             inkscape:connector-curvature="0"
             sodipodi:nodetypes="cscccccsssssssscssscssssssscsssscsscsssssssssssccsscscsscsssssssssssssssccscccscsssssscssssccssssssssssssc" />
          <path
             inkscape:connector-curvature="0"
             id="path4929"
             d="m -1478.8302,521.54555 c -1.9379,7.6e-4 -4.3467,0.0112 -7.3409,0.0313 -14.0128,0.0944 -14.5748,0.12025 -16.486,0.76145 -2.782,0.93328 -5.0876,2.61871 -6.0975,4.4549 l -0.8244,1.49739 0,10.4013 c -4e-4,9.44427 0.049,10.5105 0.5529,11.61609 1.1362,2.49482 4.9714,4.88187 8.8914,5.53427 0.8645,0.14389 7.6491,0.27892 15.0753,0.29831 l 13.5013,0.0334 0.6257,-0.79285 c 0.9335,-1.18371 0.721,-3.35213 -0.4014,-4.09969 -0.1829,-0.12181 -5.9842,-0.22367 -12.8933,-0.22568 -12.9539,-0.005 -15.1459,-0.16383 -17.2653,-1.24227 -2.0093,-1.02245 -2.056,-1.27523 -2.056,-11.24322 0,-6.07711 0.1099,-9.13589 0.3482,-9.6575 0.1933,-0.42314 0.9674,-1.06794 1.7374,-1.44637 1.37,-0.67334 1.5871,-0.68345 15.8446,-0.83211 14.0115,-0.14609 14.4694,-0.16923 14.9081,-0.7536 0.6317,-0.84138 0.3804,-3.42149 -0.3876,-3.98389 -0.3519,-0.25773 -1.9185,-0.35358 -7.7325,-0.35129 z"
             style="fill:#002000;fill-opacity:1" />
          <path
             inkscape:connector-curvature="0"
             id="path4931"
             d="m -1430.0843,752.05253 c -40.9508,-2.6778 -78.4515,-24.27134 -101.0192,-58.1686 -11.5128,-17.2926 -18.4236,-36.22598 -20.9695,-57.45 -0.6722,-5.60377 -0.7722,-21.15148 -0.1717,-26.70001 1.034,-9.55545 3.2883,-20.09344 6.0649,-28.35227 0.8048,-2.39375 1.6484,-4.79247 1.8746,-5.33048 l 0.4113,-0.97821 0.9663,1.34559 c 0.5315,0.74007 1.1299,1.52299 1.3298,1.73982 1.5247,1.6538 1.501,1.34772 0.3659,4.71846 -6.5573,19.47124 -8.1266,40.78839 -4.495,61.0571 1.1259,6.28419 1.1326,6.30291 3.1752,8.95582 3.5298,4.58429 11.8054,14.13687 15.265,17.62044 3.4413,3.46507 15.5916,14.07374 16.119,14.07374 0.1549,0 0.045,-1.44082 -0.2487,-3.25865 -0.7804,-4.83274 -1.1527,-10.29358 -1.3527,-19.84135 -0.1689,-8.06552 -0.1255,-9.11098 0.7662,-18.45 0.9826,-10.29201 1.8768,-16.61199 3.1342,-22.15183 0.6836,-3.01209 0.9473,-3.79325 1.1722,-3.47318 0.2193,0.31196 3.3778,4.0414 3.5359,4.175 0.704,0.59488 0.7571,1.4026 0.2535,3.85766 -0.2926,1.42682 -0.8733,4.9563 -1.2903,7.84328 -0.696,4.81803 -0.9259,7.12373 -1.6604,16.64907 -0.292,3.78769 0.069,19.92824 0.5601,25.05 0.2854,2.97502 0.9593,7.9798 1.6888,12.54143 0.3952,2.47131 1.2501,3.24045 8.9746,8.07477 4.4837,2.80611 14.4443,8.15147 18.75,10.06221 8.973,3.98199 20.1572,8.12473 25.35,9.38989 3.6243,0.88303 3.45,0.87816 3.45,0.0962 0,-0.3495 3.9327,-16.31325 8.7394,-35.475 10.5002,-41.85865 9.6456,-38.33325 9.3517,-38.57863 -0.1326,-0.11075 -1.0967,-0.36874 -2.1424,-0.57332 -6.4328,-1.25851 -28.537,-8.75932 -36.3223,-12.32551 -3.5915,-1.64519 -8.7423,-4.15895 -8.9938,-4.38934 -0.1271,-0.11642 1.4338,-2.08245 2.8922,-3.64276 l 0.9066,-0.97001 4.6093,2.21579 c 8.6386,4.15279 20.9685,8.69799 32.0593,11.81815 6.4624,1.81808 8.3814,2.27471 8.6078,2.0483 0.097,-0.0965 2.1726,-8.17794 4.6136,-17.95881 2.441,-9.78087 8.4979,-33.97154 13.4598,-53.75705 4.9618,-19.78549 8.9871,-35.99694 8.9451,-36.02541 -0.042,-0.0285 -1.8988,-0.56405 -4.1263,-1.19017 -6.148,-1.72811 -10.4931,-3.30328 -14.8236,-5.37382 -5.2635,-2.51658 -7.8357,-4.19334 -8.2777,-5.39604 -1.7169,-4.672 -4.1464,-9.77424 -6.0226,-12.64826 -1.6325,-2.5008 -4.7274,-6.67207 -5.8914,-7.94041 -0.3774,-0.41125 -0.6412,-0.88375 -0.5861,-1.05 0.2983,-0.90089 13.0966,-1.78214 22.7,-1.56304 10.6585,0.24317 18.7943,1.29282 28.5014,3.67716 25.0871,6.1621 48.2139,19.79734 65.357,38.53363 19.1275,20.9051 30.3394,45.70218 33.7077,74.55 0.6049,5.18094 0.4989,22.30618 -0.1718,27.75001 -3.2852,26.6651 -13.9383,50.75614 -31.0751,70.2735 -27.3095,31.10321 -66.9535,47.58032 -108.0178,44.8951 z m 15.3,-5.07714 c 4.6701,-0.2667 10.57,-0.87699 13.4686,-1.39321 1.7124,-0.30494 9.224,-7.66649 17.6564,-17.30355 1.9565,-2.23608 2.0036,-2.59731 0.2969,-2.27846 -0.703,0.13132 -3.9092,0.46611 -7.125,0.74398 -4.6443,0.40129 -8.0067,0.47384 -16.3469,0.35272 -13.0414,-0.18939 -20.3585,-0.91411 -31.4264,-3.11261 -3.4931,-0.69386 -5.7249,-1.01007 -5.8863,-0.83397 -0.2809,0.30645 -5.1494,19.77307 -5.1419,20.55954 0,0.36945 0.7931,0.62315 3.5296,1.1342 11.0935,2.07173 20.5842,2.72477 30.975,2.13136 z m 27.6,-4.50078 c 8.8993,-2.27447 21.931,-7.89204 31.0571,-13.3878 6.4309,-3.87269 14.1253,-9.5246 18.5071,-13.59442 l 1.5858,-1.47286 -4.0069,1.4797 c -7.8126,2.88514 -14.1071,4.74471 -23.2931,6.88148 -5.115,1.18981 -9.5337,2.31852 -9.8192,2.50825 -0.2856,0.18973 -3.2805,3.42199 -6.6555,7.1828 -9.7843,10.90292 -9.9613,11.11044 -9.3183,10.9218 0.3262,-0.0957 1.2005,-0.32918 1.943,-0.51895 z m -67.6833,-0.51568 c 1.1238,-3.75343 5.0676,-20.19069 4.8876,-20.37071 -0.043,-0.0435 -2.166,-0.67936 -4.7167,-1.4131 -5.0892,-1.46396 -15.5188,-5.24799 -21.6257,-7.84613 -6.5593,-2.79062 -14.5158,-6.96642 -21.9603,-11.52535 -1.9516,-1.19515 -3.6102,-2.11118 -3.6857,-2.03563 -0.6787,0.67872 3.8051,14.70622 7.6576,23.95692 l 0.9542,2.291 3.5111,2.23203 c 9.0991,5.78424 17.948,9.99867 28.2612,13.45992 5.6793,1.90606 6.4762,2.05449 6.7167,1.25105 z m 64.5333,-21.06478 c 7.9177,-0.67493 13.3948,-1.4578 13.9942,-2.00026 0.7831,-0.70863 8.8401,-13.18076 11.1748,-17.29831 5.8209,-10.26607 12.093,-25.08482 15.308,-36.16745 1.6602,-5.72317 4.373,-18.13597 4.373,-20.00943 0,-0.64926 -0.1309,-0.73465 -1.125,-0.73371 -0.6188,6e-4 -3.8436,0.33119 -7.1663,0.73467 -12.1054,1.46997 -32.8191,1.92036 -42.8587,0.93192 -6.8581,-0.67521 -15.0341,-1.77603 -21.6871,-2.91995 -3.2503,-0.55885 -5.5869,-0.83222 -5.7318,-0.67058 -0.1345,0.15008 -4.3173,16.67538 -9.2952,36.72288 -4.9778,20.0475 -9.1285,36.74599 -9.2238,37.10776 -0.153,0.58152 0.013,0.71122 1.4324,1.11903 2.2622,0.64995 7.8799,1.51589 16.6055,2.55968 4.125,0.49345 7.9725,0.95552 8.55,1.02682 1.9591,0.2419 21.7281,-0.0688 25.65,-0.40307 z m 27.6,-4.22666 c 3.6745,-0.93702 8.6837,-2.50758 15.45,-4.84408 7.9701,-2.75221 11.4869,-4.17774 17.7019,-7.17527 l 5.0875,-2.45376 2.3723,-3.03023 c 14.8435,-18.96041 23.7376,-40.88955 26.1479,-64.46954 0.199,-1.94662 0.2816,-3.6195 0.1836,-3.7175 -0.098,-0.098 -1.4979,0.32831 -3.1107,0.94738 -11.6606,4.47568 -25.1686,8.48118 -35.4825,10.52153 -2.2275,0.44065 -4.2863,0.9267 -4.575,1.0801 -0.3131,0.16631 -0.525,0.62612 -0.525,1.13889 0,1.32127 -1.9198,11.05311 -3.1403,15.91892 -1.9612,7.81874 -5.5,18.69142 -8.1044,24.9 -3.7511,8.94196 -10.1215,21.01736 -15.1061,28.63419 -1.1821,1.8063 -2.1492,3.37512 -2.1492,3.48626 0,0.24612 2.0349,-0.11702 5.25,-0.93689 z m -140.7299,-1.25856 c -1.3081,-3.82352 -3.3152,-11.02926 -4.4497,-15.975 -0.6055,-2.64 -1.2636,-5.12967 -1.4624,-5.5326 -0.1988,-0.40292 -1.8094,-1.83474 -3.5791,-3.18182 -7.351,-5.59559 -16.2256,-13.70345 -22.7358,-20.77149 -2.0192,-2.19225 -3.7315,-3.92568 -3.8052,-3.85206 -0.074,0.0736 0.403,1.46227 1.059,3.0859 6.401,15.8423 17.5929,32.08499 30.0844,43.66135 2.8271,2.62005 5.3063,4.74072 5.5421,4.74072 0.05,0 -0.244,-0.97875 -0.6533,-2.175 z m 139.6799,-74.63083 c 6.8163,-0.46991 14.3081,-1.36571 17.8746,-2.13728 l 1.5247,-0.32984 0.5441,-6.48853 c 0.4545,-5.42031 0.5103,-8.11836 0.3388,-16.38853 -0.2339,-11.27912 -0.5068,-15.17775 -1.5231,-21.75575 -3.3949,-21.97485 -11.2447,-44.04348 -21.9438,-61.69174 -1.2184,-2.00983 -2.2153,-3.80009 -2.2153,-3.97837 0,-0.42249 -0.4146,-0.41225 -4.35,0.10743 -1.815,0.23967 -4.4475,0.5515 -5.85,0.69296 -2.6278,0.26504 -13.0932,0.007 -15.0555,-0.37094 -1.0861,-0.20931 -1.1107,-0.19292 -1.411,0.94169 -0.1681,0.6351 -3.7544,15.05973 -7.9696,32.05472 -7.5714,30.52683 -10.0422,40.4265 -15.7987,63.30001 -1.6194,6.435 -2.9491,11.79 -2.9548,11.9 -0.044,0.84312 14.1021,2.82893 29.3896,4.12573 4.1759,0.35423 24.3457,0.36688 29.4,0.0185 z m 34.05,-5.26993 c 10.2202,-2.56409 21.6137,-6.18511 30.9544,-9.83775 l 3.2456,-1.2692 -0.039,-5.68365 c -0.2005,-28.982 -12.5015,-58.95628 -33.3057,-81.15712 -5.7305,-6.11517 -13.0224,-12.57638 -18.2604,-16.18022 l -1.3945,-0.95948 -2.9001,1.33973 c -3.2485,1.50073 -8.8356,3.64049 -10.7765,4.12725 l -1.2765,0.32013 0.4966,0.96303 c 0.2732,0.52967 1.9183,3.46053 3.6559,6.51303 11.7259,20.59914 18.7268,43.4355 21.1071,68.85 0.494,5.2737 0.5309,30.35369 0.049,32.96165 l -0.3258,1.76164 1.6853,-0.19714 c 0.927,-0.10842 4.1154,-0.80678 7.0854,-1.5519 z m -48.5949,-112.64202 c 2.6372,-0.17477 4.8898,-0.41144 5.0058,-0.52592 0.2746,-0.271 -4.8542,-7.11228 -9.8559,-13.14674 -3.9874,-4.81068 -5.6832,-6.63135 -5.9387,-6.37591 -0.1443,0.14434 -4.448,17.36832 -4.7657,19.07316 -0.1674,0.89807 -0.1192,0.96421 0.7855,1.07699 2.0616,0.25702 10.203,0.20102 14.769,-0.10158 z m -18.9554,-11.60723 c 1.4448,-5.73375 2.6209,-10.58149 2.6136,-10.77275 -0.01,-0.19127 -0.9246,-0.50967 -2.0383,-0.70755 l -2.025,-0.35979 -5.473,2.42853 c -3.0102,1.3357 -6.7227,3.05222 -8.25,3.81451 -4.4664,2.22914 -11.3271,6.19512 -11.3265,6.54757 0,1.59244 18.9477,9.39821 22.9609,9.46037 l 0.9114,0.0141 2.6269,-10.425 z m 34.0217,8.88973 c 2.6271,-0.83899 8.7734,-3.16512 9.0296,-3.41735 0.1721,-0.16935 -5.9066,-3.67416 -9.851,-5.67988 -5.6649,-2.88059 -15.0039,-6.76319 -14.9973,-6.23495 0,0.1196 1.1573,1.60968 2.5683,3.31129 3.093,3.72997 6.9799,8.87422 8.4812,11.22493 0.6038,0.94533 1.2649,1.72158 1.4692,1.725 0.2043,0.003 1.6893,-0.41464 3.3,-0.92904 z m -55.9464,-17.20853 c 4.7437,-2.5977 8.625,-4.82253 8.625,-4.94406 0,-0.82782 -22.8086,-0.70357 -23.6409,0.12878 -0.076,0.0764 0.3351,1.25722 0.9145,2.62401 0.5795,1.36679 1.4183,3.5982 1.8641,4.95869 0.9328,2.84627 1.4021,3.27805 2.7116,2.49455 0.4954,-0.29638 4.7819,-2.66427 9.5257,-5.26197 z"
             style="opacity:1;fill:#002000;fill-opacity:1" />
        </g>
      </g>
    </g>
  </g>
</svg>
