<?xml version="1.0" encoding="utf-8"?>
<!-- Generator: Adobe Illustrator 19.0.0, SVG Export Plug-In . SVG Version: 6.00 Build 0)  -->
<svg version="1.1" id="CenturionLogo" xmlns="http://www.w3.org/2000/svg" xmlns:xlink="http://www.w3.org/1999/xlink" x="0px"
	 y="0px" viewBox="0 0 1000 1000" style="enable-background:new 0 0 1000 1000;" xml:space="preserve">
<path id="CenturionLogoGlobo" d="M830.6,395.3c-8.3-49.7-25.9-96.7-52.3-139.8c-26.5-43.1-60.4-80.1-101-110
	c-42-30.9-89.2-52.8-140.3-65.1c-51.1-12.2-103.1-14.1-154.6-5.5c-49.7,8.3-96.7,25.9-139.8,52.3s-80.1,60.4-110,101
	c-30.9,42-52.8,89.2-65.1,140.3C55.3,419.6,53.5,471.6,62,523.1c8.3,49.7,25.9,96.7,52.3,139.8s60.4,80.1,101,110
	c42,30.9,89.2,52.8,140.3,65.1c30.1,7.2,60.5,10.8,90.9,10.8c21.2,0,42.5-1.8,63.6-5.3c49.7-8.3,96.7-25.9,139.8-52.3
	c43.1-26.5,80.1-60.4,110-101c30.9-42,52.8-89.2,65.1-140.3C837.3,498.7,839.2,446.7,830.6,395.3z M758,267.9
	c34.8,56.7,53.1,120.3,54.1,185.2c-39.3,19.2-80.5,33.6-122.6,43.1c0.1-0.6,0.1-1.3,0.2-1.9c6.2-70.1-1.9-138.7-23.9-203.8
	c-12.8-37.9-30.2-74.3-52.2-108.9c14.7-5.7,28.7-13.3,41.8-22.7C696.2,187.3,731.2,224.2,758,267.9z M222.4,425.9
	c5.6,4,11.3,7.9,17.1,11.7c55.3,36.3,116.1,62.8,180.8,79l-50.5,211c-60.2-15.2-116.5-41.4-166.2-76.8
	C193.8,584.3,197.3,505.5,222.4,425.9z M435.8,155.9c18.7,14.3,40.1,25,63.3,31.3l-73.3,306.1c-70.6-17.7-137-48.9-195.3-91.2
	c1.6-4.3,3.3-8.6,5-12.9C265.2,315.5,323.2,222.4,435.8,155.9z M539.1,122.8c13.4,14.9,25.4,29.8,36.3,44.8
	c-15.5,2.7-31.4,3.1-47.3,1.1L539.1,122.8z M561.4,112.1c25.4,8.4,49.6,19.4,72.2,32.9c-10.6,6.8-21.9,12.3-33.6,16.3
	C588.2,144.4,575.3,128,561.4,112.1z M504.7,164.1c-16.5-4.6-32-11.7-45.9-21c17.8-9.3,36.8-18,57.1-25.8L504.7,164.1z M209.8,683.8
	c47.4,30.6,99.3,53,154.5,66.9l-14.6,61.2c-41.9-11.5-80.2-29.9-113.9-53.7C225.1,737.1,216.2,712,209.8,683.8z M443.6,521.8
	c39.9,8.3,80.2,12.5,120.5,12.5c23.8,0,47.7-1.5,71.5-4.4c8.8-1.1,17.5-2.4,26.2-3.8c-12.7,81.8-44.3,153.4-82.2,208.6
	c-61.1,11.2-124.3,10.7-186.5-1.9L443.6,521.8z M449.1,498.6L522.5,192c8.5,1.2,17,1.8,25.5,1.8c14.2,0,28.3-1.7,42-4.9
	c73,111.9,82.9,223.1,75.9,303.3c-0.3,3-0.6,6-0.9,8.9C594,514.1,520.6,513.4,449.1,498.6z M445.6,93.4c18.4,0,36.9,1.4,55.3,4.2
	c-21.7,8.7-42.6,18.5-62.4,29.4c-10.1-9.4-19-20.2-26.5-32.1C423.2,93.9,434.4,93.4,445.6,93.4z M255.1,147.5
	c40.9-25.1,85.4-41.6,131.4-49.3c8.4,15.3,18.7,29.1,30.7,41.2c-33,20.2-63.1,43.5-90.1,70c-49.1,48.1-87.3,105.6-113.6,170.9
	c-0.9,2.3-1.8,4.5-2.7,6.8c-33.8-26.8-64.6-57.5-91.6-91.6C149.3,234.9,195.9,183.8,255.1,147.5z M90.7,374
	c4.5-18.7,10.3-36.8,17.5-54.2c28,33.9,59.5,64.4,94.1,91.1c-19.3,58.2-28.8,120.3-27.5,181.4c0.3,12.8,1,25.5,2.2,38
	c-33.1-27.1-62.7-58.6-88.1-93.9C77.6,484.4,77.5,429.2,90.7,374z M108.1,597.8c22.3,24.4,46.8,46.6,73.4,66.4
	c3.7,21.9,8.9,42.9,15.5,62.4C158.4,690.5,128.1,646.4,108.1,597.8z M372.8,817.4l14.7-61.4c34.6,7,69.4,10.5,104,10.5
	c22.7,0,45.3-1.5,67.7-4.5c-19.7,24.4-40.5,44.4-60.8,59.3C457.1,827.2,414.7,826,372.8,817.4z M637.6,770.8
	c-28.6,17.6-59,30.9-90.4,40c16.4-16.1,32-34.5,46.6-54.6c36.6-7.4,72.5-18.9,107.1-34.3C681.8,740.2,660.7,756.7,637.6,770.8z
	 M742.9,673.4c-41.1,24.4-84.8,42.4-130,54c5.3-8.6,10.4-17.4,15.2-26.5c29.7-55.5,49.6-117.1,58.4-179.5c43-9.1,84.8-23.1,125-41.7
	c-1.3,21.6-4.4,43.2-9.6,64.6C790.6,591.5,770.5,635.2,742.9,673.4z"/>
<g id="CenturionLogoPlace">
	<path id="CenturionLogoPlace-main" d="M244.7,20c-94.5,0-171,76.5-171,171c0,128.2,171,317.5,171,317.5s171-189.3,171-317.5
		C415.7,96.5,339.2,20,244.7,20z M244.7,290c-54.6,0-99-44.4-99-99c0-54.6,44.4-99,99-99s99,44.4,99,99
		C343.7,245.6,299.4,290,244.7,290z"/>
	<path id="CenturionLogoPlace-circle" d="M244.7,92c-54.6,0-99,44.4-99,99c0,54.6,44.4,99,99,99s99-44.4,99-99
		C343.7,136.3,299.4,92,244.7,92z"/>
	<path id="CenturionLogoPlace-c" d="M257,139.9c12.4,0,24.7,0.2,37.1-0.1c6-0.2,8.3,3.8,8.3,8c0,4.3-1.7,6.4-6.2,7
		c-2.3,0.3-4.7,0.2-7.1,0.2c-18.8,0-37.7-0.1-56.5,0.1c-5.6,0-11.2,0.3-16.7,1.2c-8.1,1.3-10.5,4.3-10.5,12.5
		c-0.1,14.4-0.1,28.9,0,43.3c0.1,7.7,2.3,10.9,9.7,12.5c5.7,1.3,11.6,1.9,17.5,2c20,0.2,40,0,60.1,0.2c2.7,0,6.2,0.7,7.9,2.4
		c4.2,4.3,1.2,11.7-4.9,12.6c-3.2,0.5-6.5,0.2-9.7,0.2c-18.5,0-37.1,0.1-55.6-0.1c-10.6-0.1-21.1-0.9-30.7-6.4
		c-8.2-4.6-12.7-11-12.6-20.6c0.1-16.2,0.1-32.4,0-48.6c-0.1-9.6,4.8-16.1,12.7-20.6c6.8-3.8,14.2-5.7,22-5.8
		c11.8-0.1,23.6,0,35.3,0C257,140,257,140,257,139.9z"/>
</g>
<path id="CenturionLogoMoon" d="M155.5,830.3c20.2,16.4,42.4,29.8,65.3,41.8c40.9,21.4,84.2,36.2,129.7,44.6
	c28.7,5.3,57.6,9.1,86.8,8.6c54-0.9,106.4-10.3,157.3-28.5c43.1-15.4,82.5-37,118.7-65.1c21.7-16.8,42.4-34.6,60.9-54.9
	c57.9-63.2,93.9-137.3,107.6-221.6c14.3-88.1,2.5-173-36.1-253.9c-14-29.3-30.3-57.2-51.4-82.1c-2-2.4-3.8-5-4.8-8.5
	c1.7,1.3,3.4,2.6,5.1,4c44,37.7,78.2,83.1,104,134.7c24.1,48.2,38.1,99.4,42.8,153c10.9,125.2-27.8,234-110.8,327.3
	c-68.1,76.6-153.8,122.7-254.4,141.6c-29.3,5.5-58.8,9.5-88.6,8.6c-98.5-3.1-189.1-30.4-268.5-90c-19.7-14.8-37.5-32.2-56.1-48.5
	c-3.3-2.9-6-6.4-8.9-9.6C154.6,831.3,155.1,830.8,155.5,830.3z"/>
</svg>
